<!DOCTYPE svg PUBLIC "-//W3C//DTD SVG 1.1//EN" "http://www.w3.org/Graphics/SVG/1.1/DTD/svg11.dtd">
<!-- Uploaded to: SVG Repo, www.svgrepo.com, Transformed by: SVG Repo Mixer Tools -->
<svg fill="#000000" height="800px" width="800px" version="1.1" id="Layer_1" xmlns="http://www.w3.org/2000/svg" xmlns:xlink="http://www.w3.org/1999/xlink" viewBox="0 0 503.718 503.718" xml:space="preserve">
<g id="SVGRepo_bgCarrier" stroke-width="0"/>
<g id="SVGRepo_tracerCarrier" stroke-linecap="round" stroke-linejoin="round"/>
<g id="SVGRepo_iconCarrier"> <g transform="translate(0 -1)"> <g> <g> <path d="M503.382,98.932c-0.902-17.716-3.974-32.776-9.816-44.46C474.954,17.249,377-6.618,307.454,3.223 c-19.159,2.711-44.575,9.124-74.836,18.476c-9.516,2.941-19.395,6.139-29.558,9.554c-19,6.385-38.097,13.222-56.36,20.06 c-6.393,2.393-12.226,4.616-17.384,6.612c-1.475,0.571-2.736,1.062-3.787,1.472L10.753,26.604 c-5.362-1.532-10.699,2.494-10.699,8.07v167.869c0,5.576,5.337,9.602,10.699,8.07l115.167-32.905l128.98,37.973 c0.517,0.178,2.451,1.105,5.161,2.931c4.829,3.253,9.738,7.896,14.394,14.2c7.24,9.803,12.933,22.042,16.793,36.896h-5.814 c-13.908,0-25.18,11.276-25.18,25.18s11.272,25.18,25.18,25.18h11.563c0.007,5.388-0.146,10.988-0.452,16.787h-11.111 c-13.908,0-25.18,11.276-25.18,25.18s11.272,25.18,25.18,25.18h5.244c-2.297,13.37-5.234,27.536-8.88,42.565 c-0.212,1.262-0.259,1.745-0.302,2.377c-0.807,12.037,1.985,26.649,11.474,40.767c7.368,10.962,18.101,20.143,32.52,26.957 c20.479,9.671,44.991,4.611,57.905-13.133c3.056-4.19,5.666-9.075,7.789-14.651c0.243-0.637,0.407-1.301,0.489-1.978 c0.063-0.522,0.147-1.382,0.227-2.534c0.504-7.236,0.207-15.231-1.52-22.983c-0.757-3.399-1.77-6.598-3.076-9.564 c0.316-2.537,0.627-5.125,0.962-8.029c0.954-8.285,1.908-17.449,2.799-27.238c2.12-23.308,3.545-46.408,3.956-68.036 c1-52.685-3.765-88.938-17.815-104.703c0.815-1.685,2.445-1.97,5.35-1.698l1.645-0.007c1.045-0.108,2.893-0.34,5.431-0.727 c4.169-0.634,8.8-1.479,13.78-2.563c14.24-3.099,28.491-7.509,41.869-13.488c23.459-10.486,41.758-24.687,52.69-43.367 c0.484-0.828,0.824-1.733,1.002-2.675c0.157-0.825,0.419-2.318,0.751-4.398c0.548-3.428,1.095-7.278,1.605-11.468 C503.278,130.616,504.163,114.287,503.382,98.932z M277.04,362.035c0-4.634,3.758-8.393,8.393-8.393h9.647 c-0.515,5.492-1.151,11.081-1.915,16.787h-7.731C280.798,370.428,277.04,366.669,277.04,362.035z M16.84,45.801l100.721,28.778 v88.059L16.84,191.415V45.801z M285.434,303.281c-4.636,0-8.393-3.759-8.393-8.393s3.758-8.393,8.393-8.393h8.861 c0.804,5.339,1.414,10.929,1.82,16.787H285.434z M484.664,144.616c-0.484,3.974-1.001,7.618-1.517,10.845 c-0.158,0.987-0.296,1.819-0.411,2.486c-9.025,14.65-24.334,26.351-44.307,35.279c-12.223,5.463-25.4,9.54-38.589,12.411 c-4.62,1.006-8.904,1.787-12.734,2.37c-1.7,0.259-3.015,0.435-3.896,0.541c-11.962-0.839-19.936,4.29-22.191,13.339 c-0.807,3.24-0.75,6.419-0.209,9.428c0.155,0.864,0.325,1.56,0.474,2.061c0.435,1.468,1.264,2.788,2.396,3.819 c10.524,9.583,15.502,44.428,14.556,94.224c-0.402,21.182-1.804,43.897-3.89,66.834c-0.878,9.649-1.818,18.68-2.757,26.837 c-0.328,2.851-0.633,5.387-0.906,7.576c-0.163,1.306-0.278,2.202-0.339,2.655c-0.228,1.715,0.079,3.458,0.88,4.991 c1.171,2.242,2.096,4.918,2.77,7.942c1.319,5.921,1.56,12.407,1.159,18.166c-1.573,4.493-3.342,7.724-5.326,10.445 c-7.97,10.951-23.701,14.198-37.166,7.839c-11.694-5.526-20.087-12.705-25.758-21.143c-4.062-6.044-6.574-12.505-7.829-19.074 c-0.848-4.439-1.022-8.302-0.828-11.206c25.266-104.607,18.018-172.118-10.287-210.442 c-10.071-13.635-20.495-20.658-28.032-23.171l-125.577-36.976V73.977c0.329-0.128,0.671-0.26,1.025-0.397 c5.102-1.974,10.878-4.175,17.211-6.546c18.096-6.775,37.018-13.549,55.822-19.869c10.038-3.373,19.789-6.529,29.168-9.428 c29.481-9.111,54.143-15.334,72.231-17.893c63.176-8.94,154.311,13.266,168.746,42.136c4.631,9.263,7.271,22.202,8.065,37.806 C487.343,114.053,486.507,129.468,484.664,144.616z"/> <path d="M159.529,76.658c-4.633,0-8.393,3.752-8.393,8.393c0,4.642,3.76,8.393,8.393,8.393s8.393-3.752,8.393-8.393 C167.922,80.41,164.162,76.658,159.529,76.658z"/> <path d="M159.529,110.232c-4.633,0-8.393,3.752-8.393,8.393c0,4.642,3.76,8.393,8.393,8.393s8.393-3.752,8.393-8.393 C167.922,113.984,164.162,110.232,159.529,110.232z"/> <path d="M159.529,143.806c-4.633,0-8.393,3.752-8.393,8.393c0,4.642,3.76,8.393,8.393,8.393s8.393-3.752,8.393-8.393 C167.922,147.557,164.162,143.806,159.529,143.806z"/> <path d="M193.102,76.658c-4.633,0-8.393,3.752-8.393,8.393c0,4.642,3.76,8.393,8.393,8.393c4.633,0,8.393-3.752,8.393-8.393 C201.496,80.41,197.736,76.658,193.102,76.658z"/> <path d="M193.102,110.232c-4.633,0-8.393,3.752-8.393,8.393c0,4.642,3.76,8.393,8.393,8.393c4.633,0,8.393-3.752,8.393-8.393 C201.496,113.984,197.736,110.232,193.102,110.232z"/> <path d="M193.102,143.806c-4.633,0-8.393,3.752-8.393,8.393c0,4.642,3.76,8.393,8.393,8.393c4.633,0,8.393-3.752,8.393-8.393 C201.496,147.557,197.736,143.806,193.102,143.806z"/> <path d="M226.676,76.658c-4.633,0-8.393,3.752-8.393,8.393c0,4.642,3.76,8.393,8.393,8.393s8.393-3.752,8.393-8.393 C235.07,80.41,231.309,76.658,226.676,76.658z"/> <path d="M226.676,110.232c-4.633,0-8.393,3.752-8.393,8.393c0,4.642,3.76,8.393,8.393,8.393s8.393-3.752,8.393-8.393 C235.07,113.984,231.309,110.232,226.676,110.232z"/> <path d="M226.676,143.806c-4.633,0-8.393,3.752-8.393,8.393c0,4.642,3.76,8.393,8.393,8.393s8.393-3.752,8.393-8.393 C235.07,147.557,231.309,143.806,226.676,143.806z"/> <path d="M411.332,76.658h-33.574c-4.636,0-8.393,3.758-8.393,8.393s3.758,8.393,8.393,8.393h33.574 c4.636,0,8.393-3.758,8.393-8.393S415.968,76.658,411.332,76.658z"/> </g> </g> </g> </g>
</svg>